<svg width="40" height="35" viewBox="0 0 40 35" fill="none" xmlns="http://www.w3.org/2000/svg">
<path d="M32.0851 0C34.7518 0.691359 36.7376 2.24692 38.0425 4.66667C39.3475 7.02881 40 9.85185 40 13.1358C40 18.321 38.3262 22.8148 34.9787 26.6173C31.6879 30.3621 27.8298 33.1564 23.4043 35L20.6809 30.5062L20.766 29.642C22.9787 28.8354 24.9362 27.107 26.6383 24.4568C28.3404 21.8066 29.1915 19.0412 29.1915 16.1605C29.1915 14.3169 28.8227 12.8189 28.0851 11.6667C27.3475 10.4568 26.3262 9.79424 25.0213 9.67901L25.2766 7.95062L32.0851 0ZM11.4043 0C14.0709 0.691359 16.0567 2.24692 17.3617 4.66667C18.6667 7.02881 19.3191 9.85185 19.3191 13.1358C19.3191 18.321 17.6454 22.8148 14.2979 26.6173C11.0071 30.3621 7.14894 33.1564 2.7234 35L0 30.5062L0.0851065 29.642C2.29787 28.8354 4.25532 27.107 5.95745 24.4568C7.65957 21.8066 8.51064 19.0412 8.51064 16.1605C8.51064 14.3169 8.14184 12.8189 7.40425 11.6667C6.66667 10.4568 5.64539 9.79424 4.34043 9.67901L4.59574 7.95062L11.4043 0Z" fill="#E4A30B"/>
</svg>
